<svg width="1920" height="1080" viewBox="0 0 1920 1080" xmlns="http://www.w3.org/2000/svg"><rect width="1920" height="1080" fill="#212121"/><path d="M 0,1080 C 0,1080 0,360 0,360 C 122.70813397129183,365.9617224880383 245.41626794258366,371.92344497607655 369,385 C 492.58373205741634,398.07655502392345 617.043062200957,418.26794258373207 739,406 C 860.956937799043,393.73205741626793 980.4114832535884,349.0047846889952 1115,320 C 1249.5885167464116,290.9952153110048 1399.3110047846892,277.7129186602871 1536,287 C 1672.6889952153108,296.2870813397129 1796.3444976076553,328.14354066985646 1920,360 C 1920,360 1920,1080 1920,1080 Z" fill="#25275c" opacity="0.19999999999999998"/><path d="M 0,1080 C 0,1080 0,720 0,720 C 102.51674641148324,718.22009569378 205.03349282296648,716.4401913875598 332,687 C 458.9665071770335,657.5598086124402 610.3827751196171,600.4593301435408 745,623 C 879.6172248803829,645.5406698564592 997.4354066985647,747.7224880382774 1114,770 C 1230.5645933014353,792.2775119617226 1345.8755980861245,734.6507177033493 1480,713 C 1614.1244019138755,691.3492822966507 1767.0622009569379,705.6746411483253 1920,720 C 1920,720 1920,1080 1920,1080 Z" fill="#25275c" opacity="0.39999999999999997"/></svg>