<svg width="1920" height="1080" viewBox="0 0 1920 1080" xmlns="http://www.w3.org/2000/svg"><rect width="1920" height="1080" fill="#ffffff"/><path d="M 0,1080 C 0,1080 0,270 0,270 C 105.19999999999999,310.4 210.39999999999998,350.8 425,347 C 639.6,343.2 963.5999999999999,295.20000000000005 1231,275 C 1498.4,254.79999999999998 1709.2,262.4 1920,270 C 1920,270 1920,1080 1920,1080 Z" fill="#e5e5f7" opacity="0.15"/><path d="M 0,1080 C 0,1080 0,540 0,540 C 156.80000000000007,490 313.60000000000014,440 542,471 C 770.3999999999999,502 1070.3999999999999,614 1312,639 C 1553.6000000000001,664 1736.8000000000002,602 1920,540 C 1920,540 1920,1080 1920,1080 Z" fill="#e5e5f7" opacity="0.3"/><path d="M 0,1080 C 0,1080 0,810 0,810 C 98.13333333333333,852.6666666666666 196.26666666666665,895.3333333333333 444,885 C 691.7333333333333,874.6666666666667 1089.0666666666666,811.3333333333334 1360,790 C 1630.9333333333334,768.6666666666666 1775.4666666666667,789.3333333333333 1920,810 C 1920,810 1920,1080 1920,1080 Z" fill="#e5e5f7" opacity="0.44999999999999996"/></svg>