<svg width="1920" height="1080" viewBox="0 0 1920 1080" xmlns="http://www.w3.org/2000/svg"><rect width="1920" height="1080" fill="#ffffff"/><path d="M 0,1080 C 0,1080 0,360 0,360 C 273.59999999999997,434.1333333333333 547.1999999999999,508.2666666666667 751,489 C 954.8000000000001,469.7333333333333 1088.8,357.06666666666666 1272,320 C 1455.2,282.93333333333334 1687.6,321.4666666666667 1920,360 C 1920,360 1920,1080 1920,1080 Z" fill="#e5e5f7" opacity="0.19999999999999998"/><path d="M 0,1080 C 0,1080 0,720 0,720 C 198.40000000000003,666.9333333333334 396.80000000000007,613.8666666666667 619,636 C 841.1999999999999,658.1333333333333 1087.2,755.4666666666666 1308,782 C 1528.8,808.5333333333334 1724.4,764.2666666666667 1920,720 C 1920,720 1920,1080 1920,1080 Z" fill="#e5e5f7" opacity="0.39999999999999997"/></svg>